<svg id="Layer_1" data-name="Layer 1" xmlns="http://www.w3.org/2000/svg" viewBox="0 0 64.75 95.51">
  <defs>
    <style>
      .cls-1 {
        fill: #fff;
      }
    </style>
  </defs>
  <g>
    <path class="cls-1" d="M32.43,17A14.6,14.6,0,1,0,47,31.55,14.62,14.62,0,0,0,32.43,17ZM41.22,29.5l-4.1,3.3,1.2,5.1a1.13,1.13,0,0,1-1,1.4,1.42,1.42,0,0,1-.6-.2l-4.5-2.8-4.4,2.8a1.42,1.42,0,0,1-.6.2,1,1,0,0,1-1-1.4l1.2-5.1-4.1-3.3a1.07,1.07,0,0,1,.6-1.9l5.2-.4,2-4.9a1.06,1.06,0,0,1,2,0l2,4.9,5.2.4C41.52,27.6,42,28.8,41.22,29.5Z" transform="translate(0 0)"/>
    <path class="cls-1" d="M53.93,62.55a10.54,10.54,0,0,1-4.41,1,11.27,11.27,0,0,1-1.8-.2h-.2l-.09.2a10.26,10.26,0,0,1-9,5.3,10.47,10.47,0,0,1-3-.5l10.4,26a1,1,0,0,0,1.8.1l4.9-8.6a.67.67,0,0,1,.8-.3l9.2,2.9a.94.94,0,0,0,1.19-1.3Z" transform="translate(0 0)"/>
    <path class="cls-1" d="M42,60.55l.8-1.4a4.22,4.22,0,0,1,4.39-2.1l1.61.3a4.17,4.17,0,0,0,4.89-3.9l.11-1.6a4.18,4.18,0,0,1,3-3.8l1.6-.4a4.13,4.13,0,0,0,2.7-5.6l-.6-1.5a4.19,4.19,0,0,1,1.1-4.7l1.2-1.1a4.1,4.1,0,0,0,0-6.2l-1.2-1.1a4,4,0,0,1-1.11-4.7l.61-1.5a4.21,4.21,0,0,0-2.7-5.6l-1.6-.4a4.18,4.18,0,0,1-3-3.8l-.11-1.6A4.08,4.08,0,0,0,48.93,6l-1.6.3A4,4,0,0,1,43,4.15l-.8-1.4a4.1,4.1,0,0,0-6-1.4l-1.29.9a4.21,4.21,0,0,1-4.8,0l-1.3-1a4.23,4.23,0,0,0-6.11,1.4l-.79,1.4a4.25,4.25,0,0,1-4.41,2.1l-1.59-.3A4.19,4.19,0,0,0,11,9.75l-.09,1.6a4.18,4.18,0,0,1-3,3.8l-1.6.4a4.13,4.13,0,0,0-2.7,5.6l.59,1.5a4.17,4.17,0,0,1-1.09,4.7l-1.2,1.1a4.07,4.07,0,0,0,0,6.2l1.2,1.1a4,4,0,0,1,1.09,4.7L3.63,42a4.19,4.19,0,0,0,2.7,5.6l1.6.4a4.18,4.18,0,0,1,3,3.8l.1,1.6a4.09,4.09,0,0,0,4.8,3.9l1.6-.3a4,4,0,0,1,4.29,2.1l.81,1.4a4.11,4.11,0,0,0,6,1.4l1.3-.9a4.21,4.21,0,0,1,4.8,0l1.3,1A4.21,4.21,0,0,0,42,60.55Zm-9.6-8.8a20.2,20.2,0,1,1,20.2-20.2A20.22,20.22,0,0,1,32.43,51.75Z" transform="translate(0 0)"/>
    <path class="cls-1" d="M17.13,63.45l-.11-.2h-.19a11.14,11.14,0,0,1-1.81.2,9.07,9.07,0,0,1-4.3-1L.93,87a1,1,0,0,0,1.2,1.3l9.2-2.9a.67.67,0,0,1,.8.3l4.9,8.6a1,1,0,0,0,1.8-.1l10.3-25.8a10.47,10.47,0,0,1-3,.5A10.56,10.56,0,0,1,17.13,63.45Z" transform="translate(0 0)"/>
  </g>
</svg>
